<?xml version="1.0" standalone="no"?>
<!DOCTYPE svg PUBLIC "-//W3C//DTD SVG 20010904//EN"
 "http://www.w3.org/TR/2001/REC-SVG-20010904/DTD/svg10.dtd">
<svg version="1.0" xmlns="http://www.w3.org/2000/svg"
 width="131.000000pt" height="113.000000pt" viewBox="0 0 131.000000 113.000000"
 preserveAspectRatio="xMidYMid meet">

<g transform="translate(0.000000,113.000000) scale(0.100000,-0.100000)"
fill="#000000" stroke="none">
<path d="M190 965 c0 -55 -3 -68 -25 -89 -14 -14 -25 -36 -25 -50 0 -13 11
-38 25 -54 14 -17 25 -33 25 -36 0 -3 -29 -6 -65 -6 -80 0 -85 -7 -85 -124 0
-64 4 -88 16 -100 35 -35 52 -10 57 84 1 41 4 -36 5 -171 2 -211 4 -248 18
-260 11 -9 20 -10 32 -2 13 8 18 30 22 94 4 69 8 84 23 87 15 3 17 -6 17 -81
0 -65 4 -88 16 -98 11 -9 20 -10 32 -2 13 8 18 30 22 94 l5 84 63 3 c50 2 62
0 62 -12 0 -23 45 -49 70 -41 11 4 28 17 36 31 15 22 23 24 98 24 78 0 83 -1
96 -25 22 -41 58 -44 92 -7 26 31 31 32 104 32 72 0 78 -2 104 -30 32 -34 50
-37 77 -13 18 17 19 34 15 376 l-4 357 -464 0 -464 0 0 -65z m910 -248 l0
-293 -32 -9 c-19 -6 -37 -20 -43 -32 -9 -21 -16 -23 -95 -23 -84 0 -87 1 -108
30 -13 17 -31 30 -42 30 -11 0 -29 -14 -42 -30 -21 -29 -24 -30 -110 -30 -71
0 -88 3 -88 15 0 8 -11 22 -25 31 -31 20 -69 8 -80 -25 -6 -18 -14 -21 -71
-21 l-64 0 0 140 0 140 50 -25 c27 -14 56 -25 64 -25 22 0 87 90 84 114 -5 35
-39 32 -69 -5 l-28 -34 -65 33 c-37 17 -80 32 -96 32 -38 0 -37 10 3 35 52 33
47 104 -9 125 -21 9 -24 15 -24 65 l0 55 445 0 445 0 0 -293z m-870 -332 c0
-14 -4 -25 -10 -25 -5 0 -10 11 -10 25 0 14 5 25 10 25 6 0 10 -11 10 -25z"/>
<path d="M433 263 c-46 -9 -99 -117 -73 -148 14 -17 238 -19 257 -3 14 11 7
58 -14 101 -23 46 -91 65 -170 50z"/>
<path d="M714 256 c-37 -16 -67 -73 -62 -119 l3 -32 128 -3 c108 -3 128 -1
133 13 11 27 -6 85 -35 117 -23 26 -36 32 -82 35 -32 2 -66 -2 -85 -11z"/>
<path d="M1020 263 c-47 -17 -89 -98 -75 -144 6 -19 14 -20 133 -17 l127 3 3
37 c4 50 -22 96 -63 114 -34 14 -96 17 -125 7z"/>
</g>
</svg>
