<?xml version="1.0" standalone="no"?>
<!DOCTYPE svg PUBLIC "-//W3C//DTD SVG 20010904//EN"
 "http://www.w3.org/TR/2001/REC-SVG-20010904/DTD/svg10.dtd">
<svg version="1.0" xmlns="http://www.w3.org/2000/svg"
 width="709.000000pt" height="569.000000pt" viewBox="0 0 709.000000 569.000000"
 preserveAspectRatio="xMidYMid meet">

<g transform="translate(0.000000,569.000000) scale(0.100000,-0.100000)"
fill="#000000" stroke="none">
<path d="M2417 5317 l-39 -12 27 -25 c36 -34 109 -145 141 -214 l25 -56 1560
0 1559 0 0 -920 0 -920 -1203 0 -1203 0 -12 -58 c-25 -120 -111 -239 -213
-293 l-44 -24 1380 -3 c964 -1 1396 1 1433 9 68 14 129 61 161 124 l26 49 0
1086 0 1085 -23 47 c-13 26 -39 61 -58 77 -73 65 31 61 -1808 60 -1248 0
-1681 -4 -1709 -12z"/>
<path d="M1791 5234 c-296 -79 -424 -422 -252 -674 205 -300 673 -228 781 119
101 325 -202 643 -529 555z"/>
<path d="M1640 4171 c-118 -38 -167 -75 -282 -209 -46 -53 -190 -219 -320
-369 -131 -150 -244 -286 -253 -302 -19 -37 -20 -111 -1 -154 18 -44 78 -95
121 -103 51 -9 114 1 144 24 14 10 73 72 131 137 l105 119 5 -210 c5 -204 6
-212 30 -248 15 -22 45 -47 78 -62 l52 -26 0 -454 c0 -481 1 -496 48 -547 75
-84 227 -70 290 26 l27 41 3 468 3 468 79 0 79 0 3 -462 3 -463 27 -47 c73
-122 253 -116 318 12 19 37 20 60 20 505 0 369 3 465 13 465 23 0 87 50 104
83 15 27 19 67 23 246 l5 215 117 -135 c64 -74 130 -142 146 -151 88 -52 211
-18 257 73 19 37 19 122 0 162 -9 18 -102 132 -208 253 -505 582 -505 582
-627 634 -68 29 -207 41 -221 19 -5 -8 -9 -60 -9 -116 0 -97 -1 -103 -24 -118
-19 -13 -29 -14 -45 -5 -26 13 -30 33 -34 150 l-2 95 -75 2 c-50 2 -93 -4
-130 -16z"/>
<path d="M4782 2605 c-117 -26 -208 -99 -264 -213 -31 -62 -33 -74 -33 -167 0
-88 3 -107 27 -157 35 -76 109 -153 183 -191 57 -30 66 -32 170 -32 106 0 114
1 178 34 113 58 184 154 208 285 38 204 -106 407 -315 445 -71 13 -74 13 -154
-4z"/>
<path d="M2898 2581 c-31 -10 -72 -28 -91 -40 -52 -32 -116 -106 -145 -169
-24 -50 -27 -69 -27 -162 0 -93 3 -112 27 -162 111 -238 420 -302 613 -127
171 157 170 422 -2 579 -97 88 -252 122 -375 81z"/>
<path d="M3784 2381 c-99 -25 -202 -109 -249 -200 -120 -238 25 -519 290 -563
165 -28 334 63 408 220 29 61 32 75 32 167 0 94 -2 104 -34 167 -40 81 -110
149 -189 186 -45 20 -75 26 -142 29 -47 1 -99 -2 -116 -6z"/>
<path d="M4533 1591 c-67 -54 -99 -90 -87 -100 5 -4 63 -57 129 -116 66 -60
143 -129 170 -154 28 -26 118 -108 201 -183 167 -152 205 -191 233 -246 63
-124 55 -308 -18 -411 -12 -16 -21 -32 -21 -35 0 -3 52 -6 115 -6 l115 0 0
336 c0 325 1 335 19 322 10 -7 82 -71 160 -143 167 -152 208 -179 266 -170
113 17 162 147 87 232 -28 32 -669 615 -735 669 l-39 31 -47 -17 c-125 -48
-301 -46 -434 4 l-67 25 -47 -38z"/>
<path d="M2288 1265 c-238 -190 -441 -358 -451 -373 -14 -20 -17 -41 -14 -85
4 -68 36 -109 98 -125 57 -14 102 1 163 56 63 57 155 142 223 204 28 26 53 44
57 41 3 -4 6 -150 6 -325 l0 -318 125 0 124 0 -34 58 c-101 165 -84 360 42
498 21 23 187 177 370 343 182 165 334 304 336 308 3 5 -9 19 -27 31 l-32 22
-60 -22 c-50 -18 -80 -22 -194 -22 -122 -1 -142 2 -211 27 -41 15 -78 27 -82
27 -3 0 -201 -155 -439 -345z"/>
<path d="M3529 1353 c-49 -43 -356 -323 -612 -557 -105 -95 -127 -126 -127
-177 0 -41 35 -101 70 -122 37 -23 108 -22 145 2 17 10 86 69 154 132 68 63
137 124 152 137 l29 23 0 -225 0 -226 520 0 520 0 0 225 c0 124 3 225 6 225 3
0 82 -70 175 -155 93 -86 181 -160 195 -165 63 -24 140 0 174 55 22 36 26 100
9 139 -7 14 -143 144 -303 288 -160 145 -326 296 -369 336 -119 110 -112 107
-199 80 -60 -19 -95 -23 -193 -22 -104 0 -131 4 -198 27 -42 15 -81 27 -86 27
-5 0 -33 -21 -62 -47z"/>
</g>
</svg>
